<mxfile host="app.diagrams.net" modified="2023-02-11T15:07:58.708Z" agent="5.0 (Windows NT 10.0; Win64; x64) AppleWebKit/537.36 (KHTML, like Gecko) Chrome/110.0.0.0 Safari/537.36" etag="EpRs7JQSjoIhH6JglrfA" version="20.8.18" type="github">
  <diagram name="Page-1" id="13e1069c-82ec-6db2-03f1-153e76fe0fe0">
    <mxGraphModel dx="1050" dy="527" grid="0" gridSize="10" guides="1" tooltips="1" connect="1" arrows="1" fold="1" page="1" pageScale="1" pageWidth="1700" pageHeight="1100" background="none" math="0" shadow="0">
      <root>
        <mxCell id="0" />
        <mxCell id="1" parent="0" />
        <mxCell id="7baba1c4bc27f4b0-2" value="home" style="shape=umlLifeline;perimeter=lifelinePerimeter;whiteSpace=wrap;html=1;container=1;collapsible=0;recursiveResize=0;outlineConnect=0;rounded=1;shadow=0;comic=0;labelBackgroundColor=none;strokeWidth=1;fontFamily=Verdana;fontSize=12;align=center;fillColor=#A8DADC;strokeColor=#457B9D;fontColor=#1D3557;" parent="1" vertex="1">
          <mxGeometry x="490" y="115" width="100" height="580" as="geometry" />
        </mxCell>
        <mxCell id="7baba1c4bc27f4b0-10" value="" style="html=1;points=[];perimeter=orthogonalPerimeter;rounded=1;shadow=0;comic=0;labelBackgroundColor=none;strokeWidth=1;fontFamily=Verdana;fontSize=12;align=center;fillColor=#A8DADC;strokeColor=#457B9D;fontColor=#1D3557;" parent="7baba1c4bc27f4b0-2" vertex="1">
          <mxGeometry x="45" y="85" width="10" height="435" as="geometry" />
        </mxCell>
        <mxCell id="NwF6FNZLCDTrNRNX7nRo-11" value="start video call with a doctorl" style="html=1;verticalAlign=bottom;endArrow=block;edgeStyle=elbowEdgeStyle;elbow=vertical;curved=0;rounded=0;strokeColor=#457B9D;" parent="7baba1c4bc27f4b0-2" target="7baba1c4bc27f4b0-5" edge="1">
          <mxGeometry x="0.0309" width="80" relative="1" as="geometry">
            <mxPoint x="55" y="270" as="sourcePoint" />
            <mxPoint x="135" y="270" as="targetPoint" />
            <Array as="points">
              <mxPoint x="320" y="290" />
            </Array>
            <mxPoint as="offset" />
          </mxGeometry>
        </mxCell>
        <mxCell id="7baba1c4bc27f4b0-3" value="Ai model" style="shape=umlLifeline;perimeter=lifelinePerimeter;whiteSpace=wrap;html=1;container=1;collapsible=0;recursiveResize=0;outlineConnect=0;rounded=1;shadow=0;comic=0;labelBackgroundColor=none;strokeWidth=1;fontFamily=Verdana;fontSize=12;align=center;fillColor=#A8DADC;strokeColor=#457B9D;fontColor=#1D3557;" parent="1" vertex="1">
          <mxGeometry x="620" y="115" width="273" height="579" as="geometry" />
        </mxCell>
        <mxCell id="NwF6FNZLCDTrNRNX7nRo-27" value="start video chat with&amp;nbsp;volunteer" style="text;strokeColor=none;align=center;fillColor=none;html=1;verticalAlign=middle;whiteSpace=wrap;rounded=0;" parent="7baba1c4bc27f4b0-3" vertex="1">
          <mxGeometry x="50" y="313" width="210" height="30" as="geometry" />
        </mxCell>
        <mxCell id="7baba1c4bc27f4b0-13" value="" style="html=1;points=[];perimeter=orthogonalPerimeter;rounded=1;shadow=0;comic=0;labelBackgroundColor=none;strokeWidth=1;fontFamily=Verdana;fontSize=12;align=center;fillColor=#A8DADC;strokeColor=#457B9D;fontColor=#1D3557;glass=0;" parent="7baba1c4bc27f4b0-3" vertex="1">
          <mxGeometry x="140" y="88" width="10" height="151" as="geometry" />
        </mxCell>
        <mxCell id="NwF6FNZLCDTrNRNX7nRo-4" value="send instruction" style="text;strokeColor=none;align=center;fillColor=none;html=1;verticalAlign=middle;whiteSpace=wrap;rounded=0;" parent="7baba1c4bc27f4b0-3" vertex="1">
          <mxGeometry x="210" y="174" width="60" height="30" as="geometry" />
        </mxCell>
        <mxCell id="7baba1c4bc27f4b0-4" value="Doctor" style="shape=umlLifeline;perimeter=lifelinePerimeter;whiteSpace=wrap;html=1;container=1;collapsible=0;recursiveResize=0;outlineConnect=0;rounded=1;shadow=0;comic=0;labelBackgroundColor=none;strokeWidth=1;fontFamily=Verdana;fontSize=12;align=center;fillColor=#A8DADC;strokeColor=#457B9D;fontColor=#1D3557;" parent="1" vertex="1">
          <mxGeometry x="910" y="113" width="100" height="580" as="geometry" />
        </mxCell>
        <mxCell id="7baba1c4bc27f4b0-16" value="" style="html=1;points=[];perimeter=orthogonalPerimeter;rounded=1;shadow=0;comic=0;labelBackgroundColor=none;strokeWidth=1;fontFamily=Verdana;fontSize=12;align=center;fillColor=#A8DADC;strokeColor=#457B9D;fontColor=#1D3557;" parent="7baba1c4bc27f4b0-4" vertex="1">
          <mxGeometry x="45" y="130" width="10" height="120" as="geometry" />
        </mxCell>
        <mxCell id="7baba1c4bc27f4b0-5" value="Chat your memory" style="shape=umlLifeline;perimeter=lifelinePerimeter;whiteSpace=wrap;html=1;container=1;collapsible=0;recursiveResize=0;outlineConnect=0;rounded=1;shadow=0;comic=0;labelBackgroundColor=none;strokeWidth=1;fontFamily=Verdana;fontSize=12;align=center;fillColor=#A8DADC;strokeColor=#457B9D;fontColor=#1D3557;" parent="1" vertex="1">
          <mxGeometry x="1030" y="114" width="100" height="580" as="geometry" />
        </mxCell>
        <mxCell id="7baba1c4bc27f4b0-19" value="" style="html=1;points=[];perimeter=orthogonalPerimeter;rounded=1;shadow=0;comic=0;labelBackgroundColor=none;strokeWidth=1;fontFamily=Verdana;fontSize=12;align=center;fillColor=#A8DADC;strokeColor=#457B9D;fontColor=#1D3557;" parent="7baba1c4bc27f4b0-5" vertex="1">
          <mxGeometry x="45" y="262" width="10" height="118" as="geometry" />
        </mxCell>
        <mxCell id="7baba1c4bc27f4b0-6" value="task reminder" style="shape=umlLifeline;perimeter=lifelinePerimeter;whiteSpace=wrap;html=1;container=1;collapsible=0;recursiveResize=0;outlineConnect=0;rounded=1;shadow=0;comic=0;labelBackgroundColor=none;strokeWidth=1;fontFamily=Verdana;fontSize=12;align=center;fillColor=#A8DADC;strokeColor=#457B9D;fontColor=#1D3557;" parent="1" vertex="1">
          <mxGeometry x="1150" y="115" width="100" height="580" as="geometry" />
        </mxCell>
        <mxCell id="NwF6FNZLCDTrNRNX7nRo-8" value="" style="html=1;points=[];perimeter=orthogonalPerimeter;outlineConnect=0;targetShapes=umlLifeline;portConstraint=eastwest;newEdgeStyle={&quot;edgeStyle&quot;:&quot;elbowEdgeStyle&quot;,&quot;elbow&quot;:&quot;vertical&quot;,&quot;curved&quot;:0,&quot;rounded&quot;:0};fillColor=#A8DADC;direction=west;" parent="7baba1c4bc27f4b0-6" vertex="1">
          <mxGeometry x="45" y="390" width="10" height="80" as="geometry" />
        </mxCell>
        <mxCell id="7baba1c4bc27f4b0-8" value="login:" style="shape=umlLifeline;perimeter=lifelinePerimeter;whiteSpace=wrap;html=1;container=1;collapsible=0;recursiveResize=0;outlineConnect=0;rounded=1;shadow=0;comic=0;labelBackgroundColor=none;strokeWidth=1;fontFamily=Verdana;fontSize=12;align=center;fillColor=#A8DADC;strokeColor=#457B9D;fontColor=#1D3557;" parent="1" vertex="1">
          <mxGeometry x="350" y="115" width="100" height="580" as="geometry" />
        </mxCell>
        <mxCell id="7baba1c4bc27f4b0-9" value="" style="html=1;points=[];perimeter=orthogonalPerimeter;rounded=1;shadow=0;comic=0;labelBackgroundColor=none;strokeWidth=1;fontFamily=Verdana;fontSize=12;align=center;fillColor=#A8DADC;strokeColor=#457B9D;fontColor=#1D3557;direction=west;" parent="7baba1c4bc27f4b0-8" vertex="1">
          <mxGeometry x="45" y="187" width="10" height="78" as="geometry" />
        </mxCell>
        <mxCell id="7baba1c4bc27f4b0-17" value="review detection&amp;nbsp;&lt;br&gt;results" style="html=1;verticalAlign=bottom;endArrow=block;labelBackgroundColor=none;fontFamily=Verdana;fontSize=12;edgeStyle=elbowEdgeStyle;elbow=vertical;strokeColor=#457B9D;fontColor=default;" parent="1" source="7baba1c4bc27f4b0-13" target="7baba1c4bc27f4b0-16" edge="1">
          <mxGeometry relative="1" as="geometry">
            <mxPoint x="590" y="260" as="sourcePoint" />
            <Array as="points">
              <mxPoint x="540" y="260" />
            </Array>
          </mxGeometry>
        </mxCell>
        <mxCell id="7baba1c4bc27f4b0-11" value="dispatch" style="html=1;verticalAlign=bottom;endArrow=block;labelBackgroundColor=none;fontFamily=Verdana;fontSize=12;edgeStyle=elbowEdgeStyle;elbow=vertical;strokeColor=#457B9D;fontColor=default;" parent="1" source="7baba1c4bc27f4b0-9" target="7baba1c4bc27f4b0-2" edge="1">
          <mxGeometry relative="1" as="geometry">
            <mxPoint x="300" y="230" as="sourcePoint" />
            <Array as="points">
              <mxPoint x="445" y="362" />
              <mxPoint x="444" y="346" />
            </Array>
          </mxGeometry>
        </mxCell>
        <mxCell id="7baba1c4bc27f4b0-14" value="upload MRI" style="html=1;verticalAlign=bottom;endArrow=block;labelBackgroundColor=none;fontFamily=Verdana;fontSize=12;edgeStyle=elbowEdgeStyle;elbow=vertical;strokeColor=#457B9D;fontColor=default;" parent="1" source="7baba1c4bc27f4b0-10" edge="1">
          <mxGeometry relative="1" as="geometry">
            <mxPoint x="450" y="240" as="sourcePoint" />
            <mxPoint x="659" y="226" as="targetPoint" />
            <Array as="points">
              <mxPoint x="645" y="226" />
            </Array>
          </mxGeometry>
        </mxCell>
        <mxCell id="MsLs-r4p8w__qgbVV_I5-2" value="user" style="shape=umlLifeline;perimeter=lifelinePerimeter;whiteSpace=wrap;html=1;container=0;dropTarget=0;collapsible=0;recursiveResize=0;outlineConnect=0;portConstraint=eastwest;newEdgeStyle={&quot;edgeStyle&quot;:&quot;elbowEdgeStyle&quot;,&quot;elbow&quot;:&quot;vertical&quot;,&quot;curved&quot;:0,&quot;rounded&quot;:0};strokeColor=#457B9D;fontColor=#1D3557;fillColor=#A8DADC;rounded=1;" parent="1" vertex="1">
          <mxGeometry x="31" y="110" width="100" height="590" as="geometry" />
        </mxCell>
        <mxCell id="MsLs-r4p8w__qgbVV_I5-3" value="" style="html=1;points=[];perimeter=orthogonalPerimeter;outlineConnect=0;targetShapes=umlLifeline;portConstraint=eastwest;newEdgeStyle={&quot;edgeStyle&quot;:&quot;elbowEdgeStyle&quot;,&quot;elbow&quot;:&quot;vertical&quot;,&quot;curved&quot;:0,&quot;rounded&quot;:0};rounded=1;strokeColor=#457B9D;fontColor=#1D3557;fillColor=#A8DADC;" parent="MsLs-r4p8w__qgbVV_I5-2" vertex="1">
          <mxGeometry x="45" y="85" width="10" height="440" as="geometry" />
        </mxCell>
        <mxCell id="NwF6FNZLCDTrNRNX7nRo-1" value="" style="edgeStyle=none;orthogonalLoop=1;jettySize=auto;html=1;rounded=0;strokeColor=#457B9D;" parent="1" source="MsLs-r4p8w__qgbVV_I5-2" target="7baba1c4bc27f4b0-8" edge="1">
          <mxGeometry width="80" relative="1" as="geometry">
            <mxPoint x="80" y="250" as="sourcePoint" />
            <mxPoint x="150" y="250" as="targetPoint" />
            <Array as="points">
              <mxPoint x="319" y="332" />
            </Array>
          </mxGeometry>
        </mxCell>
        <mxCell id="NwF6FNZLCDTrNRNX7nRo-2" value="entering email and password" style="text;strokeColor=none;align=center;fillColor=none;html=1;verticalAlign=middle;whiteSpace=wrap;rounded=0;" parent="1" vertex="1">
          <mxGeometry x="248" y="288" width="60" height="50" as="geometry" />
        </mxCell>
        <mxCell id="NwF6FNZLCDTrNRNX7nRo-15" value="write down all the daily tasks&amp;nbsp;" style="html=1;verticalAlign=bottom;startArrow=oval;startFill=1;endArrow=block;startSize=8;edgeStyle=elbowEdgeStyle;elbow=vertical;curved=0;rounded=0;strokeColor=#457B9D;" parent="1" target="7baba1c4bc27f4b0-6" edge="1">
          <mxGeometry width="60" relative="1" as="geometry">
            <mxPoint x="540" y="550" as="sourcePoint" />
            <mxPoint x="570" y="570" as="targetPoint" />
            <Array as="points">
              <mxPoint x="530" y="553" />
            </Array>
          </mxGeometry>
        </mxCell>
        <mxCell id="NwF6FNZLCDTrNRNX7nRo-19" value="sign&amp;nbsp; up" style="shape=umlLifeline;perimeter=lifelinePerimeter;whiteSpace=wrap;html=1;container=0;dropTarget=0;collapsible=0;recursiveResize=0;outlineConnect=0;portConstraint=eastwest;newEdgeStyle={&quot;edgeStyle&quot;:&quot;elbowEdgeStyle&quot;,&quot;elbow&quot;:&quot;vertical&quot;,&quot;curved&quot;:0,&quot;rounded&quot;:0};rounded=1;fillColor=#A8DADC;strokeColor=#457B9D;" parent="1" vertex="1">
          <mxGeometry x="220" y="115" width="100" height="572" as="geometry" />
        </mxCell>
        <mxCell id="NwF6FNZLCDTrNRNX7nRo-20" value="" style="html=1;points=[];perimeter=orthogonalPerimeter;outlineConnect=0;targetShapes=umlLifeline;portConstraint=eastwest;newEdgeStyle={&quot;edgeStyle&quot;:&quot;elbowEdgeStyle&quot;,&quot;elbow&quot;:&quot;vertical&quot;,&quot;curved&quot;:0,&quot;rounded&quot;:0};rounded=1;fillColor=#A8DADC;arcSize=40;strokeColor=#457B9D;" parent="NwF6FNZLCDTrNRNX7nRo-19" vertex="1">
          <mxGeometry x="45" y="81" width="10" height="64" as="geometry" />
        </mxCell>
        <mxCell id="NwF6FNZLCDTrNRNX7nRo-22" value="enter user data" style="html=1;verticalAlign=bottom;startArrow=oval;startFill=1;endArrow=block;startSize=8;edgeStyle=elbowEdgeStyle;elbow=vertical;curved=0;rounded=0;strokeColor=#457B9D;" parent="1" source="MsLs-r4p8w__qgbVV_I5-2" target="NwF6FNZLCDTrNRNX7nRo-19" edge="1">
          <mxGeometry x="-0.1458" y="9" width="60" relative="1" as="geometry">
            <mxPoint x="144" y="562" as="sourcePoint" />
            <mxPoint x="168" y="245" as="targetPoint" />
            <Array as="points">
              <mxPoint x="144" y="238" />
              <mxPoint x="129" y="302" />
              <mxPoint x="490" y="785" />
            </Array>
            <mxPoint as="offset" />
          </mxGeometry>
        </mxCell>
        <mxCell id="NwF6FNZLCDTrNRNX7nRo-31" value="" style="endArrow=none;dashed=1;endFill=0;html=1;rounded=0;startArrow=none;strokeColor=#457B9D;" parent="1" source="7baba1c4bc27f4b0-4" target="7baba1c4bc27f4b0-13" edge="1">
          <mxGeometry width="160" relative="1" as="geometry">
            <mxPoint x="1352" y="434" as="sourcePoint" />
            <mxPoint x="1387" y="407" as="targetPoint" />
            <Array as="points">
              <mxPoint x="813" y="324" />
            </Array>
          </mxGeometry>
        </mxCell>
        <mxCell id="NwF6FNZLCDTrNRNX7nRo-33" value="" style="html=1;verticalAlign=bottom;startArrow=oval;startFill=1;endArrow=block;startSize=8;edgeStyle=elbowEdgeStyle;elbow=vertical;curved=0;rounded=0;strokeColor=#457B9D;" parent="1" source="7baba1c4bc27f4b0-2" target="7baba1c4bc27f4b0-5" edge="1">
          <mxGeometry width="60" relative="1" as="geometry">
            <mxPoint x="973" y="369" as="sourcePoint" />
            <mxPoint x="1028" y="369" as="targetPoint" />
            <Array as="points">
              <mxPoint x="815" y="457" />
              <mxPoint x="885" y="469" />
              <mxPoint x="998" y="360" />
            </Array>
          </mxGeometry>
        </mxCell>
      </root>
    </mxGraphModel>
  </diagram>
</mxfile>
